<mxfile host="app.diagrams.net" modified="2023-11-24T18:56:52.955Z" agent="Mozilla/5.0 (Windows NT 10.0; Win64; x64) AppleWebKit/537.36 (KHTML, like Gecko) Chrome/119.0.0.0 Safari/537.36" etag="-1nUQxD5L7TYbUZk8uvF" version="22.1.4" type="device">
  <diagram name="PÃ¡gina-1" id="Y8Qk--tgnwYBx-l58MOT">
    <mxGraphModel dx="1062" dy="579" grid="1" gridSize="10" guides="1" tooltips="1" connect="1" arrows="1" fold="1" page="1" pageScale="1" pageWidth="827" pageHeight="1169" math="0" shadow="0">
      <root>
        <mxCell id="0" />
        <mxCell id="1" parent="0" />
        <mxCell id="2HCNmOpep_N7QFvDaUxF-2" value="ProjetoInova" style="swimlane;fontStyle=1;align=center;verticalAlign=top;childLayout=stackLayout;horizontal=1;startSize=26;horizontalStack=0;resizeParent=1;resizeParentMax=0;resizeLast=0;collapsible=1;marginBottom=0;whiteSpace=wrap;html=1;" vertex="1" parent="1">
          <mxGeometry x="350" y="480" width="160" height="112" as="geometry">
            <mxRectangle x="414" y="137" width="100" height="30" as="alternateBounds" />
          </mxGeometry>
        </mxCell>
        <mxCell id="2HCNmOpep_N7QFvDaUxF-3" value="+ nota: float" style="text;strokeColor=none;fillColor=none;align=left;verticalAlign=top;spacingLeft=4;spacingRight=4;overflow=hidden;rotatable=0;points=[[0,0.5],[1,0.5]];portConstraint=eastwest;whiteSpace=wrap;html=1;" vertex="1" parent="2HCNmOpep_N7QFvDaUxF-2">
          <mxGeometry y="26" width="160" height="26" as="geometry" />
        </mxCell>
        <mxCell id="2HCNmOpep_N7QFvDaUxF-42" value="+ data: date" style="text;strokeColor=none;fillColor=none;align=left;verticalAlign=top;spacingLeft=4;spacingRight=4;overflow=hidden;rotatable=0;points=[[0,0.5],[1,0.5]];portConstraint=eastwest;whiteSpace=wrap;html=1;" vertex="1" parent="2HCNmOpep_N7QFvDaUxF-2">
          <mxGeometry y="52" width="160" height="26" as="geometry" />
        </mxCell>
        <mxCell id="2HCNmOpep_N7QFvDaUxF-41" value="+ estante: int" style="text;strokeColor=none;fillColor=none;align=left;verticalAlign=top;spacingLeft=4;spacingRight=4;overflow=hidden;rotatable=0;points=[[0,0.5],[1,0.5]];portConstraint=eastwest;whiteSpace=wrap;html=1;" vertex="1" parent="2HCNmOpep_N7QFvDaUxF-2">
          <mxGeometry y="78" width="160" height="26" as="geometry" />
        </mxCell>
        <mxCell id="2HCNmOpep_N7QFvDaUxF-4" value="" style="line;strokeWidth=1;fillColor=none;align=left;verticalAlign=middle;spacingTop=-1;spacingLeft=3;spacingRight=3;rotatable=0;labelPosition=right;points=[];portConstraint=eastwest;strokeColor=inherit;" vertex="1" parent="2HCNmOpep_N7QFvDaUxF-2">
          <mxGeometry y="104" width="160" height="8" as="geometry" />
        </mxCell>
        <mxCell id="2HCNmOpep_N7QFvDaUxF-26" style="edgeStyle=orthogonalEdgeStyle;rounded=0;orthogonalLoop=1;jettySize=auto;html=1;" edge="1" parent="1" source="2HCNmOpep_N7QFvDaUxF-6" target="2HCNmOpep_N7QFvDaUxF-2">
          <mxGeometry relative="1" as="geometry">
            <mxPoint x="220" y="430" as="sourcePoint" />
            <Array as="points">
              <mxPoint x="360" y="416" />
              <mxPoint x="400" y="416" />
            </Array>
          </mxGeometry>
        </mxCell>
        <mxCell id="2HCNmOpep_N7QFvDaUxF-6" value="Professor" style="swimlane;fontStyle=1;align=center;verticalAlign=top;childLayout=stackLayout;horizontal=1;startSize=26;horizontalStack=0;resizeParent=1;resizeParentMax=0;resizeLast=0;collapsible=1;marginBottom=0;whiteSpace=wrap;html=1;" vertex="1" parent="1">
          <mxGeometry x="280" y="240" width="160" height="112" as="geometry">
            <mxRectangle x="414" y="137" width="100" height="30" as="alternateBounds" />
          </mxGeometry>
        </mxCell>
        <mxCell id="2HCNmOpep_N7QFvDaUxF-29" value="+ matricula: string" style="text;strokeColor=none;fillColor=none;align=left;verticalAlign=top;spacingLeft=4;spacingRight=4;overflow=hidden;rotatable=0;points=[[0,0.5],[1,0.5]];portConstraint=eastwest;whiteSpace=wrap;html=1;" vertex="1" parent="2HCNmOpep_N7QFvDaUxF-6">
          <mxGeometry y="26" width="160" height="26" as="geometry" />
        </mxCell>
        <mxCell id="2HCNmOpep_N7QFvDaUxF-7" value="+ nome: string" style="text;strokeColor=none;fillColor=none;align=left;verticalAlign=top;spacingLeft=4;spacingRight=4;overflow=hidden;rotatable=0;points=[[0,0.5],[1,0.5]];portConstraint=eastwest;whiteSpace=wrap;html=1;" vertex="1" parent="2HCNmOpep_N7QFvDaUxF-6">
          <mxGeometry y="52" width="160" height="26" as="geometry" />
        </mxCell>
        <mxCell id="2HCNmOpep_N7QFvDaUxF-8" value="" style="line;strokeWidth=1;fillColor=none;align=left;verticalAlign=middle;spacingTop=-1;spacingLeft=3;spacingRight=3;rotatable=0;labelPosition=right;points=[];portConstraint=eastwest;strokeColor=inherit;" vertex="1" parent="2HCNmOpep_N7QFvDaUxF-6">
          <mxGeometry y="78" width="160" height="8" as="geometry" />
        </mxCell>
        <mxCell id="2HCNmOpep_N7QFvDaUxF-9" value="+ avaliar():float" style="text;strokeColor=none;fillColor=none;align=left;verticalAlign=top;spacingLeft=4;spacingRight=4;overflow=hidden;rotatable=0;points=[[0,0.5],[1,0.5]];portConstraint=eastwest;whiteSpace=wrap;html=1;" vertex="1" parent="2HCNmOpep_N7QFvDaUxF-6">
          <mxGeometry y="86" width="160" height="26" as="geometry" />
        </mxCell>
        <mxCell id="2HCNmOpep_N7QFvDaUxF-27" style="edgeStyle=orthogonalEdgeStyle;rounded=0;orthogonalLoop=1;jettySize=auto;html=1;exitX=0;exitY=0;exitDx=0;exitDy=0;" edge="1" parent="1" source="2HCNmOpep_N7QFvDaUxF-10" target="2HCNmOpep_N7QFvDaUxF-2">
          <mxGeometry relative="1" as="geometry">
            <Array as="points">
              <mxPoint x="620" y="523" />
            </Array>
          </mxGeometry>
        </mxCell>
        <mxCell id="2HCNmOpep_N7QFvDaUxF-10" value="Aluno" style="swimlane;fontStyle=1;align=center;verticalAlign=top;childLayout=stackLayout;horizontal=1;startSize=26;horizontalStack=0;resizeParent=1;resizeParentMax=0;resizeLast=0;collapsible=1;marginBottom=0;whiteSpace=wrap;html=1;" vertex="1" parent="1">
          <mxGeometry x="620" y="500" width="160" height="138" as="geometry">
            <mxRectangle x="414" y="137" width="100" height="30" as="alternateBounds" />
          </mxGeometry>
        </mxCell>
        <mxCell id="2HCNmOpep_N7QFvDaUxF-31" value="+ matricula: string" style="text;strokeColor=none;fillColor=none;align=left;verticalAlign=top;spacingLeft=4;spacingRight=4;overflow=hidden;rotatable=0;points=[[0,0.5],[1,0.5]];portConstraint=eastwest;whiteSpace=wrap;html=1;" vertex="1" parent="2HCNmOpep_N7QFvDaUxF-10">
          <mxGeometry y="26" width="160" height="26" as="geometry" />
        </mxCell>
        <mxCell id="2HCNmOpep_N7QFvDaUxF-11" value="+ nome: string" style="text;strokeColor=none;fillColor=none;align=left;verticalAlign=top;spacingLeft=4;spacingRight=4;overflow=hidden;rotatable=0;points=[[0,0.5],[1,0.5]];portConstraint=eastwest;whiteSpace=wrap;html=1;" vertex="1" parent="2HCNmOpep_N7QFvDaUxF-10">
          <mxGeometry y="52" width="160" height="26" as="geometry" />
        </mxCell>
        <mxCell id="2HCNmOpep_N7QFvDaUxF-32" value="+ curso: string" style="text;strokeColor=none;fillColor=none;align=left;verticalAlign=top;spacingLeft=4;spacingRight=4;overflow=hidden;rotatable=0;points=[[0,0.5],[1,0.5]];portConstraint=eastwest;whiteSpace=wrap;html=1;" vertex="1" parent="2HCNmOpep_N7QFvDaUxF-10">
          <mxGeometry y="78" width="160" height="26" as="geometry" />
        </mxCell>
        <mxCell id="2HCNmOpep_N7QFvDaUxF-12" value="" style="line;strokeWidth=1;fillColor=none;align=left;verticalAlign=middle;spacingTop=-1;spacingLeft=3;spacingRight=3;rotatable=0;labelPosition=right;points=[];portConstraint=eastwest;strokeColor=inherit;" vertex="1" parent="2HCNmOpep_N7QFvDaUxF-10">
          <mxGeometry y="104" width="160" height="8" as="geometry" />
        </mxCell>
        <mxCell id="2HCNmOpep_N7QFvDaUxF-33" value="+ avaliar(): float" style="text;strokeColor=none;fillColor=none;align=left;verticalAlign=top;spacingLeft=4;spacingRight=4;overflow=hidden;rotatable=0;points=[[0,0.5],[1,0.5]];portConstraint=eastwest;whiteSpace=wrap;html=1;" vertex="1" parent="2HCNmOpep_N7QFvDaUxF-10">
          <mxGeometry y="112" width="160" height="26" as="geometry" />
        </mxCell>
        <mxCell id="2HCNmOpep_N7QFvDaUxF-24" style="edgeStyle=orthogonalEdgeStyle;rounded=0;orthogonalLoop=1;jettySize=auto;html=1;exitX=0.5;exitY=0;exitDx=0;exitDy=0;" edge="1" parent="1" source="2HCNmOpep_N7QFvDaUxF-14" target="2HCNmOpep_N7QFvDaUxF-2">
          <mxGeometry relative="1" as="geometry">
            <Array as="points">
              <mxPoint x="640" y="300" />
              <mxPoint x="480" y="300" />
            </Array>
          </mxGeometry>
        </mxCell>
        <mxCell id="2HCNmOpep_N7QFvDaUxF-14" value="Grupo" style="swimlane;fontStyle=1;align=center;verticalAlign=top;childLayout=stackLayout;horizontal=1;startSize=26;horizontalStack=0;resizeParent=1;resizeParentMax=0;resizeLast=0;collapsible=1;marginBottom=0;whiteSpace=wrap;html=1;" vertex="1" parent="1">
          <mxGeometry x="560" y="320" width="160" height="112" as="geometry">
            <mxRectangle x="414" y="137" width="100" height="30" as="alternateBounds" />
          </mxGeometry>
        </mxCell>
        <mxCell id="2HCNmOpep_N7QFvDaUxF-35" value="+ matriculaLider: string" style="text;strokeColor=none;fillColor=none;align=left;verticalAlign=top;spacingLeft=4;spacingRight=4;overflow=hidden;rotatable=0;points=[[0,0.5],[1,0.5]];portConstraint=eastwest;whiteSpace=wrap;html=1;" vertex="1" parent="2HCNmOpep_N7QFvDaUxF-14">
          <mxGeometry y="26" width="160" height="26" as="geometry" />
        </mxCell>
        <mxCell id="2HCNmOpep_N7QFvDaUxF-28" value="+ nome: string" style="text;strokeColor=none;fillColor=none;align=left;verticalAlign=top;spacingLeft=4;spacingRight=4;overflow=hidden;rotatable=0;points=[[0,0.5],[1,0.5]];portConstraint=eastwest;whiteSpace=wrap;html=1;" vertex="1" parent="2HCNmOpep_N7QFvDaUxF-14">
          <mxGeometry y="52" width="160" height="26" as="geometry" />
        </mxCell>
        <mxCell id="2HCNmOpep_N7QFvDaUxF-15" value="+ matricula: string" style="text;strokeColor=none;fillColor=none;align=left;verticalAlign=top;spacingLeft=4;spacingRight=4;overflow=hidden;rotatable=0;points=[[0,0.5],[1,0.5]];portConstraint=eastwest;whiteSpace=wrap;html=1;" vertex="1" parent="2HCNmOpep_N7QFvDaUxF-14">
          <mxGeometry y="78" width="160" height="26" as="geometry" />
        </mxCell>
        <mxCell id="2HCNmOpep_N7QFvDaUxF-16" value="" style="line;strokeWidth=1;fillColor=none;align=left;verticalAlign=middle;spacingTop=-1;spacingLeft=3;spacingRight=3;rotatable=0;labelPosition=right;points=[];portConstraint=eastwest;strokeColor=inherit;" vertex="1" parent="2HCNmOpep_N7QFvDaUxF-14">
          <mxGeometry y="104" width="160" height="8" as="geometry" />
        </mxCell>
        <mxCell id="2HCNmOpep_N7QFvDaUxF-25" style="edgeStyle=orthogonalEdgeStyle;rounded=0;orthogonalLoop=1;jettySize=auto;html=1;exitX=0.5;exitY=0;exitDx=0;exitDy=0;entryX=0.997;entryY=0.149;entryDx=0;entryDy=0;entryPerimeter=0;" edge="1" parent="1" source="2HCNmOpep_N7QFvDaUxF-10" target="2HCNmOpep_N7QFvDaUxF-14">
          <mxGeometry relative="1" as="geometry">
            <Array as="points">
              <mxPoint x="700" y="466" />
              <mxPoint x="740" y="466" />
              <mxPoint x="740" y="337" />
            </Array>
          </mxGeometry>
        </mxCell>
        <mxCell id="2HCNmOpep_N7QFvDaUxF-46" value="MIni mundo" style="swimlane;whiteSpace=wrap;html=1;" vertex="1" parent="1">
          <mxGeometry y="206" width="200" height="200" as="geometry" />
        </mxCell>
        <mxCell id="2HCNmOpep_N7QFvDaUxF-49" value="&lt;div style=&quot;text-align: center;&quot;&gt;Este Ã© o projeto do Inova Week. Cada grupo pode ter no mÃ¡ximo 4 pessoas. Os projetos serÃ£o avaliados por alunos e professores, sendo que cada pessoa sÃ³ poderÃ¡ avaliar o mesmo projeto uma Ãºnica vez. A nota serÃ¡ de 0 a 2. Os projetos sÃ³ serÃ£o apresentados em um Ãºnico dia, duas vezes no dia: das 8 da manhÃ£ atÃ© as 11 e das 8 da noite atÃ© as 11 da noite.&lt;br&gt;&lt;/div&gt;" style="text;strokeColor=none;fillColor=none;align=left;verticalAlign=middle;spacingLeft=4;spacingRight=4;overflow=hidden;points=[[0,0.5],[1,0.5]];portConstraint=eastwest;rotatable=0;whiteSpace=wrap;html=1;" vertex="1" parent="2HCNmOpep_N7QFvDaUxF-46">
          <mxGeometry y="24" width="200" height="176" as="geometry" />
        </mxCell>
      </root>
    </mxGraphModel>
  </diagram>
</mxfile>
